<svg width="74" height="47" viewBox="0 0 74 47" fill="none" xmlns="http://www.w3.org/2000/svg">
<path d="M73.2722 28.6713C73.2721 25.1701 72.2686 21.7422 70.3806 18.7937C68.4926 15.8452 65.7991 13.4995 62.6192 12.0345C59.4392 10.5694 55.906 10.0464 52.438 10.5273C48.97 11.0082 45.7125 12.473 43.0512 14.748C40.3899 17.0231 38.4363 20.0132 37.4219 23.3642C36.4074 26.7152 36.3746 30.2868 37.3272 33.6559C38.2798 37.025 40.1781 40.0505 42.7971 42.3741C45.416 44.6978 48.6461 46.2222 52.1047 46.7668V33.9767H47.4451V28.6713H52.0965V24.6332C52.0965 20.0442 54.832 17.5068 59.0167 17.5068C60.3904 17.526 61.7609 17.6457 63.1172 17.865V22.3726H60.8078C58.5309 22.3726 57.8226 23.7865 57.8226 25.2329V28.6713H62.9028L62.0887 33.9659H57.8172V46.7668C62.1256 46.0839 66.049 43.8864 68.882 40.5694C71.715 37.2524 73.2717 33.0335 73.2722 28.6713Z" fill="#4676ED"/>
<path d="M62.0833 33.9766L62.8974 28.682H57.8172V25.2327C57.8172 23.7863 58.5255 22.3724 60.8023 22.3724H63.1118V17.8648C61.7555 17.6455 60.385 17.5258 59.0112 17.5066C54.8266 17.5066 52.0911 20.044 52.0911 24.633V28.6711H47.4451V33.9766H52.0965V46.7775C53.9937 47.0742 55.9254 47.0742 57.8226 46.7775V33.9766H62.0833Z" fill="white"/>
</svg>
