<svg width="48" height="48" viewBox="0 0 48 48" fill="none" xmlns="http://www.w3.org/2000/svg">
<path d="M24 47.8261C10.7452 47.8261 3.8147e-06 37.1199 3.8147e-06 23.913C3.8147e-06 10.7062 10.7452 0 24 0C37.2548 0 48 10.7062 48 23.913C48 37.1199 37.2548 47.8261 24 47.8261Z" fill="black"/>
<path d="M29.9384 39.4937L31.8098 37.6291C32.0732 37.367 32.2821 37.0557 32.4247 36.713C32.5672 36.3703 32.6406 36.003 32.6406 35.6321C32.6406 35.2611 32.5672 34.8938 32.4247 34.5512C32.2821 34.2085 32.0732 33.8972 31.8098 33.635L22.0541 23.9131L31.8098 14.1911C32.0732 13.929 32.2821 13.6177 32.4247 13.275C32.5672 12.9323 32.6406 12.565 32.6406 12.1941C32.6406 11.8231 32.5672 11.4558 32.4247 11.1131C32.2821 10.7705 32.0732 10.4592 31.8098 10.197L29.9384 8.33244C29.6753 8.06999 29.3629 7.86179 29.0189 7.71974C28.675 7.57769 28.3064 7.50458 27.9341 7.50458C27.5618 7.50458 27.1931 7.57769 26.8492 7.71974C26.5053 7.86179 26.1929 8.06999 25.9298 8.33244L12.2968 21.916C12.0334 22.1782 11.8244 22.4895 11.6819 22.8321C11.5393 23.1748 11.4659 23.5421 11.4659 23.9131C11.4659 24.284 11.5393 24.6513 11.6819 24.994C11.8244 25.3367 12.0334 25.648 12.2968 25.9101L25.9298 39.4937C26.1929 39.7562 26.5053 39.9644 26.8492 40.1064C27.1931 40.2485 27.5618 40.3216 27.9341 40.3216C28.3064 40.3216 28.675 40.2485 29.0189 40.1064C29.3629 39.9644 29.6753 39.7562 29.9384 39.4937Z" fill="white"/>
</svg>
